<svg xmlns="http://www.w3.org/2000/svg" version="1.1" xmlns:xlink="http://www.w3.org/1999/xlink" xmlns:svgjs="http://svgjs.com/svgjs" width="100%" height="100%" preserveAspectRatio="none" viewBox="0 0 1440 560"><g mask="url(&quot;#SvgjsMask1000&quot;)" fill="none"><rect width="1440" height="560" x="0" y="0" fill="rgba(250, 210, 225, 1)"></rect><path d="M0,457.366C97.567,459.004,193.612,475.569,286.585,445.936C400.334,409.681,525.606,370.006,589.834,269.368C656.074,165.576,649.636,30.947,628.89,-90.421C608.502,-209.696,570.846,-338.35,473.636,-410.408C379.992,-479.823,249.147,-437.641,134.217,-457.102C36.309,-473.681,-56.511,-544.92,-151.593,-516.279C-246.573,-487.669,-287.938,-380.565,-356.823,-309.189C-430.53,-232.818,-528.819,-179.589,-570.67,-82.05C-619.244,31.157,-668.945,170.525,-608.777,278.019C-548.203,386.239,-399.431,401.369,-280.467,436.416C-188.679,463.457,-95.675,455.76,0,457.366" fill="#f8bdd3"></path><path d="M1440 1027.26C1536.643 1028.97 1647.349 1060.4569999999999 1722.795 1000.037 1798.3600000000001 939.5219999999999 1778.694 820.7470000000001 1811.5720000000001 729.691 1841.009 648.1659999999999 1913.1019999999999 579.393 1905.866 493.019 1898.527 405.416 1836.538 332.238 1773.1689999999999 271.307 1713.561 213.99200000000002 1633.46 192.06 1557.906 158.449 1469.614 119.17099999999999 1387.871 42.25800000000004 1292.437 57.447 1195.628 72.85399999999998 1127.309 159.49599999999998 1066.79 236.611 1008.4490000000001 310.95 978.236 398.91499999999996 952.988 489.978 924.354 593.252 868.437 703.26 910.021 802.033 951.6990000000001 901.027 1064.709 948.134 1163.563 990.144 1250.898 1027.259 1345.121 1025.5819999999999 1440 1027.26" fill="#fce7ef"></path></g><defs><mask id="SvgjsMask1000"><rect width="1440" height="560" fill="#ffffff"></rect></mask></defs></svg>